<svg xmlns="http://www.w3.org/2000/svg" height="48" viewBox="0 96 960 960" width="48"><path d="M101.174 913.391V423.88q-15-4.053-27.5-23.607t-12.5-47.282V238.305q0-33.372 24.836-58.556 24.837-25.184 58.338-25.184h671.304q33.372 0 58.556 25.184 25.183 25.184 25.183 58.556v114.686q0 27.728-12.782 47.282-12.783 19.554-27.218 23.607v489.511q0 33.139-25.183 59.156-25.184 26.018-58.556 26.018H184.348q-33.501 0-58.338-26.018-24.836-26.017-24.836-59.156Zm83.174-476.912v478.912h591.304V436.479H184.348Zm631.304-83.74V238.305H144.348v114.434h671.304ZM350.609 642.478h259.348v-70.174H350.609v70.174ZM184.348 915.391V436.479v478.912Z"/></svg>